<?xml version="1.0" encoding="UTF-8" standalone="no"?>
<!DOCTYPE svg PUBLIC "-//W3C//DTD SVG 1.1//EN"
 "http://www.w3.org/Graphics/SVG/1.1/DTD/svg11.dtd">
<!-- Generated by graphviz version 2.40.1 (20161225.0304)
 -->
<!-- Title: dependencies Pages: 1 -->
<svg width="504pt" height="284pt"
 viewBox="0.00 0.00 504.00 284.00" xmlns="http://www.w3.org/2000/svg" xmlns:xlink="http://www.w3.org/1999/xlink">
<g id="graph0" class="graph" transform="scale(1 1) rotate(0) translate(4 280)">
<title>dependencies</title>
<polygon fill="#ffffff" stroke="transparent" points="-4,4 -4,-280 500,-280 500,4 -4,4"/>
<text text-anchor="start" x="227.0091" y="-42.4" font-family="sans-serif" font-weight="bold" font-size="14.00" fill="#000000">Legend</text>
<polygon fill="#ffffb3" stroke="transparent" points="14,-10 14,-30 34,-30 34,-10 14,-10"/>
<text text-anchor="start" x="37.629" y="-15.4" font-family="sans-serif" font-size="14.00" fill="#000000"> &#160;Declarations</text>
<polygon fill="#8dd3c7" stroke="transparent" points="127,-10 127,-30 147,-30 147,-10 127,-10"/>
<text text-anchor="start" x="150.7251" y="-15.4" font-family="sans-serif" font-size="14.00" fill="#000000"> &#160;Module</text>
<polygon fill="#80b1d3" stroke="transparent" points="213,-10 213,-30 233,-30 233,-10 213,-10"/>
<text text-anchor="start" x="236.7812" y="-15.4" font-family="sans-serif" font-size="14.00" fill="#000000"> &#160;Bootstrap</text>
<polygon fill="#fdb462" stroke="transparent" points="310,-10 310,-30 330,-30 330,-10 310,-10"/>
<text text-anchor="start" x="333.6732" y="-15.4" font-family="sans-serif" font-size="14.00" fill="#000000"> &#160;Providers</text>
<polygon fill="#fb8072" stroke="transparent" points="406,-10 406,-30 426,-30 426,-10 406,-10"/>
<text text-anchor="start" x="429.7258" y="-15.4" font-family="sans-serif" font-size="14.00" fill="#000000"> &#160;Exports</text>
<g id="clust1" class="cluster">
<title>cluster_AppModule</title>
<polygon fill="none" stroke="#000000" stroke-dasharray="1,5" points="9,-70 9,-268 149,-268 149,-70 9,-70"/>
</g>
<g id="clust2" class="cluster">
<title>cluster_AppModule_declarations</title>
<polygon fill="none" stroke="#000000" points="18,-78 18,-130 140,-130 140,-78 18,-78"/>
</g>
<g id="clust6" class="cluster">
<title>cluster_AppModule_bootstrap</title>
<polygon fill="none" stroke="#000000" points="17,-208 17,-260 141,-260 141,-208 17,-208"/>
</g>
<g id="clust14" class="cluster">
<title>cluster_Ionic4PhoneSpinnerModule</title>
<polygon fill="none" stroke="#000000" stroke-dasharray="1,5" points="157,-70 157,-268 487,-268 487,-70 157,-70"/>
</g>
<g id="clust15" class="cluster">
<title>cluster_Ionic4PhoneSpinnerModule_declarations</title>
<polygon fill="none" stroke="#000000" points="169,-78 169,-130 475,-130 475,-78 169,-78"/>
</g>
<g id="clust19" class="cluster">
<title>cluster_Ionic4PhoneSpinnerModule_exports</title>
<polygon fill="none" stroke="#000000" points="165,-208 165,-260 479,-260 479,-208 165,-208"/>
</g>
<!-- AppComponent -->
<g id="node1" class="node">
<title>AppComponent</title>
<polygon fill="#ffffb3" stroke="#000000" points="131.9399,-122 26.0601,-122 26.0601,-86 131.9399,-86 131.9399,-122"/>
<text text-anchor="middle" x="79" y="-99.8" font-family="Times,serif" font-size="14.00" fill="#000000">AppComponent</text>
</g>
<!-- AppModule -->
<g id="node2" class="node">
<title>AppModule</title>
<polygon fill="#8dd3c7" stroke="#000000" points="120.6571,-187 117.6571,-191 96.6571,-191 93.6571,-187 37.3429,-187 37.3429,-151 120.6571,-151 120.6571,-187"/>
<text text-anchor="middle" x="79" y="-164.8" font-family="Times,serif" font-size="14.00" fill="#000000">AppModule</text>
</g>
<!-- AppComponent&#45;&gt;AppModule -->
<g id="edge1" class="edge">
<title>AppComponent&#45;&gt;AppModule</title>
<path fill="none" stroke="#000000" d="M79,-122.1061C79,-122.1061 79,-140.991 79,-140.991"/>
<polygon fill="#000000" stroke="#000000" points="75.5001,-140.9909 79,-150.991 82.5001,-140.991 75.5001,-140.9909"/>
</g>
<!-- AppComponent  -->
<g id="node3" class="node">
<title>AppComponent </title>
<polygon fill="#80b1d3" stroke="#000000" points="133.439,-252 24.561,-252 24.561,-216 133.439,-216 133.439,-252"/>
<text text-anchor="middle" x="79" y="-229.8" font-family="Times,serif" font-size="14.00" fill="#000000">AppComponent </text>
</g>
<!-- AppModule&#45;&gt;AppComponent  -->
<g id="edge2" class="edge">
<title>AppModule&#45;&gt;AppComponent </title>
<path fill="none" stroke="#000000" stroke-dasharray="1,5" d="M79,-187.1061C79,-187.1061 79,-205.991 79,-205.991"/>
<polygon fill="#000000" stroke="#000000" points="75.5001,-205.9909 79,-215.991 82.5001,-205.991 75.5001,-205.9909"/>
</g>
<!-- Ionic4PhoneSpinnerComponent -->
<g id="node4" class="node">
<title>Ionic4PhoneSpinnerComponent</title>
<polygon fill="#ffffb3" stroke="#000000" points="466.6441,-122 271.3559,-122 271.3559,-86 466.6441,-86 466.6441,-122"/>
<text text-anchor="middle" x="369" y="-99.8" font-family="Times,serif" font-size="14.00" fill="#000000">Ionic4PhoneSpinnerComponent</text>
</g>
<!-- Ionic4PhoneSpinnerModule -->
<g id="node6" class="node">
<title>Ionic4PhoneSpinnerModule</title>
<polygon fill="#8dd3c7" stroke="#000000" points="394.8613,-187 391.8613,-191 370.8613,-191 367.8613,-187 221.1387,-187 221.1387,-151 394.8613,-151 394.8613,-187"/>
<text text-anchor="middle" x="308" y="-164.8" font-family="Times,serif" font-size="14.00" fill="#000000">Ionic4PhoneSpinnerModule</text>
</g>
<!-- Ionic4PhoneSpinnerComponent&#45;&gt;Ionic4PhoneSpinnerModule -->
<g id="edge3" class="edge">
<title>Ionic4PhoneSpinnerComponent&#45;&gt;Ionic4PhoneSpinnerModule</title>
<path fill="none" stroke="#000000" d="M333.0544,-122.1061C333.0544,-122.1061 333.0544,-140.991 333.0544,-140.991"/>
<polygon fill="#000000" stroke="#000000" points="329.5544,-140.9909 333.0544,-150.991 336.5544,-140.991 329.5544,-140.9909"/>
</g>
<!-- RangePipe -->
<g id="node5" class="node">
<title>RangePipe</title>
<polygon fill="#ffffb3" stroke="#000000" points="253.1544,-122 176.8456,-122 176.8456,-86 253.1544,-86 253.1544,-122"/>
<text text-anchor="middle" x="215" y="-99.8" font-family="Times,serif" font-size="14.00" fill="#000000">RangePipe</text>
</g>
<!-- RangePipe&#45;&gt;Ionic4PhoneSpinnerModule -->
<g id="edge4" class="edge">
<title>RangePipe&#45;&gt;Ionic4PhoneSpinnerModule</title>
<path fill="none" stroke="#000000" d="M237.1981,-122.1061C237.1981,-122.1061 237.1981,-140.991 237.1981,-140.991"/>
<polygon fill="#000000" stroke="#000000" points="233.6982,-140.9909 237.1981,-150.991 240.6982,-140.991 233.6982,-140.9909"/>
</g>
<!-- Ionic4PhoneSpinnerComponent  -->
<g id="node7" class="node">
<title>Ionic4PhoneSpinnerComponent </title>
<polygon fill="#fb8072" stroke="#000000" points="470.6439,-252 271.3561,-252 271.3561,-216 470.6439,-216 470.6439,-252"/>
<text text-anchor="middle" x="371" y="-229.8" font-family="Times,serif" font-size="14.00" fill="#000000">Ionic4PhoneSpinnerComponent </text>
</g>
<!-- Ionic4PhoneSpinnerModule&#45;&gt;Ionic4PhoneSpinnerComponent  -->
<g id="edge5" class="edge">
<title>Ionic4PhoneSpinnerModule&#45;&gt;Ionic4PhoneSpinnerComponent </title>
<path fill="none" stroke="#000000" stroke-dasharray="5,2" d="M333.1794,-187.1061C333.1794,-187.1061 333.1794,-205.991 333.1794,-205.991"/>
<polygon fill="#000000" stroke="#000000" points="329.6794,-205.9909 333.1794,-215.991 336.6794,-205.991 329.6794,-205.9909"/>
</g>
<!-- RangePipe  -->
<g id="node8" class="node">
<title>RangePipe </title>
<polygon fill="#fb8072" stroke="#000000" points="253.1537,-252 172.8463,-252 172.8463,-216 253.1537,-216 253.1537,-252"/>
<text text-anchor="middle" x="213" y="-229.8" font-family="Times,serif" font-size="14.00" fill="#000000">RangePipe </text>
</g>
<!-- Ionic4PhoneSpinnerModule&#45;&gt;RangePipe  -->
<g id="edge6" class="edge">
<title>Ionic4PhoneSpinnerModule&#45;&gt;RangePipe </title>
<path fill="none" stroke="#000000" stroke-dasharray="5,2" d="M237.0731,-187.1061C237.0731,-187.1061 237.0731,-205.991 237.0731,-205.991"/>
<polygon fill="#000000" stroke="#000000" points="233.5732,-205.9909 237.0731,-215.991 240.5732,-205.991 233.5732,-205.9909"/>
</g>
</g>
</svg>
