<?xml version="1.0" encoding="UTF-8" standalone="no"?>
<!DOCTYPE svg PUBLIC "-//W3C//DTD SVG 1.1//EN"
 "http://www.w3.org/Graphics/SVG/1.1/DTD/svg11.dtd">
<!-- Generated by graphviz version 2.40.1 (20161225.0304)
 -->
<!-- Title: dependencies Pages: 1 -->
<svg width="1282pt" height="290pt"
 viewBox="0.00 0.00 1282.00 290.00" xmlns="http://www.w3.org/2000/svg" xmlns:xlink="http://www.w3.org/1999/xlink">
<g id="graph0" class="graph" transform="scale(1 1) rotate(0) translate(4 286)">
<title>dependencies</title>
<polygon fill="#ffffff" stroke="transparent" points="-4,4 -4,-286 1278,-286 1278,4 -4,4"/>
<text text-anchor="start" x="616.0091" y="-42.4" font-family="sans-serif" font-weight="bold" font-size="14.00" fill="#000000">Legend</text>
<polygon fill="#ffffb3" stroke="transparent" points="403,-10 403,-30 423,-30 423,-10 403,-10"/>
<text text-anchor="start" x="426.629" y="-15.4" font-family="sans-serif" font-size="14.00" fill="#000000"> &#160;Declarations</text>
<polygon fill="#8dd3c7" stroke="transparent" points="516,-10 516,-30 536,-30 536,-10 516,-10"/>
<text text-anchor="start" x="539.7251" y="-15.4" font-family="sans-serif" font-size="14.00" fill="#000000"> &#160;Module</text>
<polygon fill="#80b1d3" stroke="transparent" points="602,-10 602,-30 622,-30 622,-10 602,-10"/>
<text text-anchor="start" x="625.7812" y="-15.4" font-family="sans-serif" font-size="14.00" fill="#000000"> &#160;Bootstrap</text>
<polygon fill="#fdb462" stroke="transparent" points="699,-10 699,-30 719,-30 719,-10 699,-10"/>
<text text-anchor="start" x="722.6732" y="-15.4" font-family="sans-serif" font-size="14.00" fill="#000000"> &#160;Providers</text>
<polygon fill="#fb8072" stroke="transparent" points="795,-10 795,-30 815,-30 815,-10 795,-10"/>
<text text-anchor="start" x="818.7258" y="-15.4" font-family="sans-serif" font-size="14.00" fill="#000000"> &#160;Exports</text>
<g id="clust1" class="cluster">
<title>cluster_AppModule</title>
<polygon fill="none" stroke="#000000" stroke-dasharray="1,5" points="8,-70 8,-274 298,-274 298,-70 8,-70"/>
</g>
<g id="clust2" class="cluster">
<title>cluster_AppModule_declarations</title>
<polygon fill="none" stroke="#000000" points="168,-78 168,-130 290,-130 290,-78 168,-78"/>
</g>
<g id="clust4" class="cluster">
<title>cluster_AppModule_imports</title>
<polygon fill="none" stroke="#000000" points="16,-78 16,-130 160,-130 160,-78 16,-78"/>
</g>
<g id="clust6" class="cluster">
<title>cluster_AppModule_bootstrap</title>
<polygon fill="none" stroke="#000000" points="96,-214 96,-266 220,-266 220,-214 96,-214"/>
</g>
<g id="clust14" class="cluster">
<title>cluster_HomePageModule</title>
<polygon fill="none" stroke="#000000" stroke-dasharray="1,5" points="306,-70 306,-198 614,-198 614,-70 306,-70"/>
</g>
<g id="clust15" class="cluster">
<title>cluster_HomePageModule_declarations</title>
<polygon fill="none" stroke="#000000" points="314,-78 314,-130 408,-130 408,-78 314,-78"/>
</g>
<g id="clust17" class="cluster">
<title>cluster_HomePageModule_imports</title>
<polygon fill="none" stroke="#000000" points="416,-78 416,-130 606,-130 606,-78 416,-78"/>
</g>
<g id="clust21" class="cluster">
<title>cluster_Ionic4PhoneSpinnerModule</title>
<polygon fill="none" stroke="#000000" stroke-dasharray="1,5" points="622,-138 622,-206 1266,-206 1266,-138 622,-138"/>
</g>
<g id="clust22" class="cluster">
<title>cluster_Ionic4PhoneSpinnerModule_declarations</title>
<polygon fill="none" stroke="#000000" points="952,-146 952,-198 1258,-198 1258,-146 952,-146"/>
</g>
<g id="clust26" class="cluster">
<title>cluster_Ionic4PhoneSpinnerModule_exports</title>
<polygon fill="none" stroke="#000000" points="630,-146 630,-198 944,-198 944,-146 630,-146"/>
</g>
<!-- AppComponent -->
<g id="node1" class="node">
<title>AppComponent</title>
<polygon fill="#ffffb3" stroke="#000000" points="281.9399,-122 176.0601,-122 176.0601,-86 281.9399,-86 281.9399,-122"/>
<text text-anchor="middle" x="229" y="-99.8" font-family="Times,serif" font-size="14.00" fill="#000000">AppComponent</text>
</g>
<!-- AppModule -->
<g id="node2" class="node">
<title>AppModule</title>
<polygon fill="#8dd3c7" stroke="#000000" points="199.6571,-190 196.6571,-194 175.6571,-194 172.6571,-190 116.3429,-190 116.3429,-154 199.6571,-154 199.6571,-190"/>
<text text-anchor="middle" x="158" y="-167.8" font-family="Times,serif" font-size="14.00" fill="#000000">AppModule</text>
</g>
<!-- AppComponent&#45;&gt;AppModule -->
<g id="edge1" class="edge">
<title>AppComponent&#45;&gt;AppModule</title>
<path fill="none" stroke="#000000" d="M188.0544,-122.2228C188.0544,-122.2228 188.0544,-143.7269 188.0544,-143.7269"/>
<polygon fill="#000000" stroke="#000000" points="184.5544,-143.7269 188.0544,-153.7269 191.5544,-143.727 184.5544,-143.7269"/>
</g>
<!-- AppComponent  -->
<g id="node4" class="node">
<title>AppComponent </title>
<polygon fill="#80b1d3" stroke="#000000" points="212.439,-258 103.561,-258 103.561,-222 212.439,-222 212.439,-258"/>
<text text-anchor="middle" x="158" y="-235.8" font-family="Times,serif" font-size="14.00" fill="#000000">AppComponent </text>
</g>
<!-- AppModule&#45;&gt;AppComponent  -->
<g id="edge3" class="edge">
<title>AppModule&#45;&gt;AppComponent </title>
<path fill="none" stroke="#000000" stroke-dasharray="1,5" d="M158,-190.2228C158,-190.2228 158,-211.7269 158,-211.7269"/>
<polygon fill="#000000" stroke="#000000" points="154.5001,-211.7269 158,-221.7269 161.5001,-211.727 154.5001,-211.7269"/>
</g>
<!-- AppRoutingModule -->
<g id="node3" class="node">
<title>AppRoutingModule</title>
<polygon fill="#8dd3c7" stroke="#000000" points="152.2744,-122 149.2744,-126 128.2744,-126 125.2744,-122 23.7256,-122 23.7256,-86 152.2744,-86 152.2744,-122"/>
<text text-anchor="middle" x="88" y="-99.8" font-family="Times,serif" font-size="14.00" fill="#000000">AppRoutingModule</text>
</g>
<!-- AppRoutingModule&#45;&gt;AppModule -->
<g id="edge2" class="edge">
<title>AppRoutingModule&#45;&gt;AppModule</title>
<path fill="none" stroke="#000000" d="M134.2795,-122.2228C134.2795,-122.2228 134.2795,-143.7269 134.2795,-143.7269"/>
<polygon fill="#000000" stroke="#000000" points="130.7795,-143.7269 134.2795,-153.7269 137.7795,-143.727 130.7795,-143.7269"/>
</g>
<!-- HomePage -->
<g id="node5" class="node">
<title>HomePage</title>
<polygon fill="#ffffb3" stroke="#000000" points="399.9248,-122 322.0752,-122 322.0752,-86 399.9248,-86 399.9248,-122"/>
<text text-anchor="middle" x="361" y="-99.8" font-family="Times,serif" font-size="14.00" fill="#000000">HomePage</text>
</g>
<!-- HomePageModule -->
<g id="node6" class="node">
<title>HomePageModule</title>
<polygon fill="#8dd3c7" stroke="#000000" points="502.4734,-190 499.4734,-194 478.4734,-194 475.4734,-190 381.5266,-190 381.5266,-154 502.4734,-154 502.4734,-190"/>
<text text-anchor="middle" x="442" y="-167.8" font-family="Times,serif" font-size="14.00" fill="#000000">HomePageModule</text>
</g>
<!-- HomePage&#45;&gt;HomePageModule -->
<g id="edge4" class="edge">
<title>HomePage&#45;&gt;HomePageModule</title>
<path fill="none" stroke="#000000" d="M390.6126,-122.2228C390.6126,-122.2228 390.6126,-143.7269 390.6126,-143.7269"/>
<polygon fill="#000000" stroke="#000000" points="387.1126,-143.7269 390.6126,-153.7269 394.1126,-143.727 387.1126,-143.7269"/>
</g>
<!-- Ionic4PhoneSpinnerModule -->
<g id="node7" class="node">
<title>Ionic4PhoneSpinnerModule</title>
<polygon fill="#8dd3c7" stroke="#000000" points="597.8613,-122 594.8613,-126 573.8613,-126 570.8613,-122 424.1387,-122 424.1387,-86 597.8613,-86 597.8613,-122"/>
<text text-anchor="middle" x="511" y="-99.8" font-family="Times,serif" font-size="14.00" fill="#000000">Ionic4PhoneSpinnerModule</text>
</g>
<!-- Ionic4PhoneSpinnerModule&#45;&gt;HomePageModule -->
<g id="edge5" class="edge">
<title>Ionic4PhoneSpinnerModule&#45;&gt;HomePageModule</title>
<path fill="none" stroke="#000000" d="M463.2781,-122.2228C463.2781,-122.2228 463.2781,-143.7269 463.2781,-143.7269"/>
<polygon fill="#000000" stroke="#000000" points="459.7781,-143.7269 463.2781,-153.7269 466.7781,-143.727 459.7781,-143.7269"/>
</g>
<!-- Ionic4PhoneSpinnerComponent  -->
<g id="node10" class="node">
<title>Ionic4PhoneSpinnerComponent </title>
<polygon fill="#fb8072" stroke="#000000" points="935.6439,-190 736.3561,-190 736.3561,-154 935.6439,-154 935.6439,-190"/>
<text text-anchor="middle" x="836" y="-167.8" font-family="Times,serif" font-size="14.00" fill="#000000">Ionic4PhoneSpinnerComponent </text>
</g>
<!-- Ionic4PhoneSpinnerModule&#45;&gt;Ionic4PhoneSpinnerComponent  -->
<g id="edge8" class="edge">
<title>Ionic4PhoneSpinnerModule&#45;&gt;Ionic4PhoneSpinnerComponent </title>
<path fill="none" stroke="#000000" stroke-dasharray="5,2" d="M598.094,-108C694.363,-108 836,-108 836,-108 836,-108 836,-143.8314 836,-143.8314"/>
<polygon fill="#000000" stroke="#000000" points="832.5001,-143.8313 836,-153.8314 839.5001,-143.8314 832.5001,-143.8313"/>
</g>
<!-- RangePipe  -->
<g id="node11" class="node">
<title>RangePipe </title>
<polygon fill="#fb8072" stroke="#000000" points="718.1537,-190 637.8463,-190 637.8463,-154 718.1537,-154 718.1537,-190"/>
<text text-anchor="middle" x="678" y="-167.8" font-family="Times,serif" font-size="14.00" fill="#000000">RangePipe </text>
</g>
<!-- Ionic4PhoneSpinnerModule&#45;&gt;RangePipe  -->
<g id="edge9" class="edge">
<title>Ionic4PhoneSpinnerModule&#45;&gt;RangePipe </title>
<path fill="none" stroke="#000000" stroke-dasharray="5,2" d="M597.924,-115C638.502,-115 678,-115 678,-115 678,-115 678,-143.9648 678,-143.9648"/>
<polygon fill="#000000" stroke="#000000" points="674.5001,-143.9648 678,-153.9648 681.5001,-143.9649 674.5001,-143.9648"/>
</g>
<!-- Ionic4PhoneSpinnerComponent -->
<g id="node8" class="node">
<title>Ionic4PhoneSpinnerComponent</title>
<polygon fill="#ffffb3" stroke="#000000" points="1249.6441,-190 1054.3559,-190 1054.3559,-154 1249.6441,-154 1249.6441,-190"/>
<text text-anchor="middle" x="1152" y="-167.8" font-family="Times,serif" font-size="14.00" fill="#000000">Ionic4PhoneSpinnerComponent</text>
</g>
<!-- Ionic4PhoneSpinnerComponent&#45;&gt;Ionic4PhoneSpinnerModule -->
<g id="edge6" class="edge">
<title>Ionic4PhoneSpinnerComponent&#45;&gt;Ionic4PhoneSpinnerModule</title>
<path fill="none" stroke="#000000" d="M1152,-153.9092C1152,-130.8672 1152,-94 1152,-94 1152,-94 608.1152,-94 608.1152,-94"/>
<polygon fill="#000000" stroke="#000000" points="608.1152,-90.5001 598.1152,-94 608.1152,-97.5001 608.1152,-90.5001"/>
</g>
<!-- RangePipe -->
<g id="node9" class="node">
<title>RangePipe</title>
<polygon fill="#ffffb3" stroke="#000000" points="1036.1544,-190 959.8456,-190 959.8456,-154 1036.1544,-154 1036.1544,-190"/>
<text text-anchor="middle" x="998" y="-167.8" font-family="Times,serif" font-size="14.00" fill="#000000">RangePipe</text>
</g>
<!-- RangePipe&#45;&gt;Ionic4PhoneSpinnerModule -->
<g id="edge7" class="edge">
<title>RangePipe&#45;&gt;Ionic4PhoneSpinnerModule</title>
<path fill="none" stroke="#000000" d="M998,-153.7157C998,-132.6789 998,-101 998,-101 998,-101 608.0658,-101 608.0658,-101"/>
<polygon fill="#000000" stroke="#000000" points="608.0659,-97.5001 598.0658,-101 608.0658,-104.5001 608.0659,-97.5001"/>
</g>
</g>
</svg>
