<?xml version="1.0" encoding="UTF-8" standalone="no"?>
<!DOCTYPE svg PUBLIC "-//W3C//DTD SVG 1.1//EN"
 "http://www.w3.org/Graphics/SVG/1.1/DTD/svg11.dtd">
<!-- Generated by graphviz version 2.40.1 (20161225.0304)
 -->
<!-- Title: dependencies Pages: 1 -->
<svg width="504pt" height="284pt"
 viewBox="0.00 0.00 504.00 284.00" xmlns="http://www.w3.org/2000/svg" xmlns:xlink="http://www.w3.org/1999/xlink">
<g id="graph0" class="graph" transform="scale(1 1) rotate(0) translate(4 280)">
<title>dependencies</title>
<polygon fill="#ffffff" stroke="transparent" points="-4,4 -4,-280 500,-280 500,4 -4,4"/>
<text text-anchor="start" x="227.0091" y="-42.4" font-family="sans-serif" font-weight="bold" font-size="14.00" fill="#000000">Legend</text>
<polygon fill="#ffffb3" stroke="transparent" points="14,-10 14,-30 34,-30 34,-10 14,-10"/>
<text text-anchor="start" x="37.629" y="-15.4" font-family="sans-serif" font-size="14.00" fill="#000000"> &#160;Declarations</text>
<polygon fill="#8dd3c7" stroke="transparent" points="127,-10 127,-30 147,-30 147,-10 127,-10"/>
<text text-anchor="start" x="150.7251" y="-15.4" font-family="sans-serif" font-size="14.00" fill="#000000"> &#160;Module</text>
<polygon fill="#80b1d3" stroke="transparent" points="213,-10 213,-30 233,-30 233,-10 213,-10"/>
<text text-anchor="start" x="236.7812" y="-15.4" font-family="sans-serif" font-size="14.00" fill="#000000"> &#160;Bootstrap</text>
<polygon fill="#fdb462" stroke="transparent" points="310,-10 310,-30 330,-30 330,-10 310,-10"/>
<text text-anchor="start" x="333.6732" y="-15.4" font-family="sans-serif" font-size="14.00" fill="#000000"> &#160;Providers</text>
<polygon fill="#fb8072" stroke="transparent" points="406,-10 406,-30 426,-30 426,-10 406,-10"/>
<text text-anchor="start" x="429.7258" y="-15.4" font-family="sans-serif" font-size="14.00" fill="#000000"> &#160;Exports</text>
<g id="clust1" class="cluster">
<title>cluster_Ionic4PhoneSpinnerModule</title>
<polygon fill="none" stroke="#000000" stroke-dasharray="1,5" points="83,-70 83,-268 413,-268 413,-70 83,-70"/>
</g>
<g id="clust2" class="cluster">
<title>cluster_Ionic4PhoneSpinnerModule_declarations</title>
<polygon fill="none" stroke="#000000" points="95,-78 95,-130 401,-130 401,-78 95,-78"/>
</g>
<g id="clust6" class="cluster">
<title>cluster_Ionic4PhoneSpinnerModule_exports</title>
<polygon fill="none" stroke="#000000" points="91,-208 91,-260 405,-260 405,-208 91,-208"/>
</g>
<!-- Ionic4PhoneSpinnerComponent -->
<g id="node1" class="node">
<title>Ionic4PhoneSpinnerComponent</title>
<polygon fill="#ffffb3" stroke="#000000" points="392.6441,-122 197.3559,-122 197.3559,-86 392.6441,-86 392.6441,-122"/>
<text text-anchor="middle" x="295" y="-99.8" font-family="Times,serif" font-size="14.00" fill="#000000">Ionic4PhoneSpinnerComponent</text>
</g>
<!-- Ionic4PhoneSpinnerModule -->
<g id="node3" class="node">
<title>Ionic4PhoneSpinnerModule</title>
<polygon fill="#8dd3c7" stroke="#000000" points="320.8613,-187 317.8613,-191 296.8613,-191 293.8613,-187 147.1387,-187 147.1387,-151 320.8613,-151 320.8613,-187"/>
<text text-anchor="middle" x="234" y="-164.8" font-family="Times,serif" font-size="14.00" fill="#000000">Ionic4PhoneSpinnerModule</text>
</g>
<!-- Ionic4PhoneSpinnerComponent&#45;&gt;Ionic4PhoneSpinnerModule -->
<g id="edge1" class="edge">
<title>Ionic4PhoneSpinnerComponent&#45;&gt;Ionic4PhoneSpinnerModule</title>
<path fill="none" stroke="#000000" d="M259.0544,-122.1061C259.0544,-122.1061 259.0544,-140.991 259.0544,-140.991"/>
<polygon fill="#000000" stroke="#000000" points="255.5544,-140.9909 259.0544,-150.991 262.5544,-140.991 255.5544,-140.9909"/>
</g>
<!-- RangePipe -->
<g id="node2" class="node">
<title>RangePipe</title>
<polygon fill="#ffffb3" stroke="#000000" points="179.1544,-122 102.8456,-122 102.8456,-86 179.1544,-86 179.1544,-122"/>
<text text-anchor="middle" x="141" y="-99.8" font-family="Times,serif" font-size="14.00" fill="#000000">RangePipe</text>
</g>
<!-- RangePipe&#45;&gt;Ionic4PhoneSpinnerModule -->
<g id="edge2" class="edge">
<title>RangePipe&#45;&gt;Ionic4PhoneSpinnerModule</title>
<path fill="none" stroke="#000000" d="M163.1981,-122.1061C163.1981,-122.1061 163.1981,-140.991 163.1981,-140.991"/>
<polygon fill="#000000" stroke="#000000" points="159.6982,-140.9909 163.1981,-150.991 166.6982,-140.991 159.6982,-140.9909"/>
</g>
<!-- Ionic4PhoneSpinnerComponent  -->
<g id="node4" class="node">
<title>Ionic4PhoneSpinnerComponent </title>
<polygon fill="#fb8072" stroke="#000000" points="396.6439,-252 197.3561,-252 197.3561,-216 396.6439,-216 396.6439,-252"/>
<text text-anchor="middle" x="297" y="-229.8" font-family="Times,serif" font-size="14.00" fill="#000000">Ionic4PhoneSpinnerComponent </text>
</g>
<!-- Ionic4PhoneSpinnerModule&#45;&gt;Ionic4PhoneSpinnerComponent  -->
<g id="edge3" class="edge">
<title>Ionic4PhoneSpinnerModule&#45;&gt;Ionic4PhoneSpinnerComponent </title>
<path fill="none" stroke="#000000" stroke-dasharray="5,2" d="M259.1794,-187.1061C259.1794,-187.1061 259.1794,-205.991 259.1794,-205.991"/>
<polygon fill="#000000" stroke="#000000" points="255.6794,-205.9909 259.1794,-215.991 262.6794,-205.991 255.6794,-205.9909"/>
</g>
<!-- RangePipe  -->
<g id="node5" class="node">
<title>RangePipe </title>
<polygon fill="#fb8072" stroke="#000000" points="179.1537,-252 98.8463,-252 98.8463,-216 179.1537,-216 179.1537,-252"/>
<text text-anchor="middle" x="139" y="-229.8" font-family="Times,serif" font-size="14.00" fill="#000000">RangePipe </text>
</g>
<!-- Ionic4PhoneSpinnerModule&#45;&gt;RangePipe  -->
<g id="edge4" class="edge">
<title>Ionic4PhoneSpinnerModule&#45;&gt;RangePipe </title>
<path fill="none" stroke="#000000" stroke-dasharray="5,2" d="M163.0731,-187.1061C163.0731,-187.1061 163.0731,-205.991 163.0731,-205.991"/>
<polygon fill="#000000" stroke="#000000" points="159.5732,-205.9909 163.0731,-215.991 166.5732,-205.991 159.5732,-205.9909"/>
</g>
</g>
</svg>
